PathFileType	4	(X/Y/Z)	C:/Users/beibeiliu/ov580/test_trc/User3\out3_training_dense_left.trc
DataRate	CameraRate	NumFrames	NumMarkers	Units	OrigDataRate	OrigDataStartFrame	OrigNumFrames
120	120	10	19	mm	120	251	500
Frame#	Time	ThumbCMC			ThumbMCP			ThumbIP			ThumbTip			IndexMCP			IndexPIP			IndexTip			MiddleMCP			MiddlePIP			MiddleTip			RingMCP			RingPIP			RingTip			PinkyMCP			PinkyPIP			PinkyTip			BackHand1			BackHand2			BackHand3	
		X0	Y0	Z0	X1	Y1	Z1	X2	Y2	Z2	X3	Y3	Z3	X4	Y4	Z4	X5	Y5	Z5	X6	Y6	Z6	X7	Y7	Z7	X8	Y8	Z8	X9	Y9	Z9	X10	Y10	Z10	X11	Y11	Z11	X12	Y12	Z12	X13	Y13	Z13	X14	Y14	Z14	X15	Y15	Z15	X16	Y16	Z16	X17	Y17	Z17	X18	Y18	Z18	
250	2.08333	-199.89	31.7727	50.2015	-195.674	46.5845	18.3907	-173.683	37.967	-4.36625	-152.87	26.2891	-2.99574	-185.101	32.6788	-21.2208	-161.442	55.2854	-20.5518	-161.306	62.478	16.8413	-163.865	20.2441	-24.2538	-148.226	47.6334	-18.8272	-147.568	49.8102	18.7153	-154.374	7.30615	-14.7008	-132.115	30.0967	-12.5151	-139.461	38.175	18.1093	-147.052	-10.8929	-2.08657	-133.429	1.52955	-23.4385	-119.763	23.6423	-28.367	-179.362	-20.4657	30.827	-181.357	-20.9659	61.3713	-203.025	-0.827762	44.7137	
251	2.09167	-201.221	37.3051	52.3482	-194.532	49.6923	20.4036	-172.936	39.5816	-3.45164	-152.443	22.1371	-1.04299	-181.476	32.8986	-21.7519	-160.553	56.7118	-19.4711	-159.519	63.4111	11.5069	-166.775	21.104	-23.4316	-145.661	44.2681	-20.2404	-146.971	48.6814	18.5924	-152.711	7.39067	-17.6735	-133.908	31.1627	-13.8906	-139.43	34.7424	20.0861	-147.996	-10.8999	-1.65345	-134.597	0.600491	-24.0034	-119.158	27.5617	-25.5226	-181.447	-19.316	28.4135	-183.522	-21.5282	61.5907	-203.302	-1.67751	43.0876	
252	2.1	-195.7	38.3915	52.4937	-191.394	50.5526	16.0238	-172.343	42.1829	-5.36342	-150.363	23.0173	-5.51214	-183.418	33.0172	-21.2173	-154.814	54.1952	-20.7588	-152.49	60.9078	11.4229	-164.681	19.7367	-25.4658	-143.955	42.9971	-22.0492	-144.822	45.7143	20.8058	-154.33	5.62174	-17.1361	-133.214	25.7836	-15.3524	-135.982	29.674	18.8038	-147.106	-15.4616	-6.86089	-134.293	3.57028	-23.8677	-119.133	25.6003	-17.6936	-183.151	-16.9548	30.3882	-186.497	-19.5593	60.5909	-205.65	4.19509	43.0661	
253	2.10833	-191.959	47.381	53.4377	-185.24	55.4803	19.8575	-169.651	47.0825	-8.10551	-149.752	25.6771	-12.7499	-177.531	33.4184	-24.1048	-153.609	53.1891	-27.4558	-144.568	61.7562	4.3742	-164.833	21.0744	-26.6035	-140.727	39.6978	-25.4637	-138.98	41.1499	15.5692	-152.605	4.42668	-19.4122	-129.381	19.6935	-12.9769	-139.609	24.1095	20.7179	-151.195	-16.0305	-8.31837	-132.013	1.46393	-21.5859	-115.07	18.3474	-8.32708	-187.058	-15.7893	26.3362	-188.835	-17.5344	57.2216	-204.654	14.3759	41.5929	
254	2.11667	-185.02	48.3628	48.6566	-177.827	64.5263	19.5851	-166.171	60.6276	-6.86699	-150.011	37.2127	-20.4482	-178.267	40.026	-23.1684	-148.295	53.0601	-29.0374	-136.856	55.2018	4.32713	-168.094	17.6238	-25.5113	-137.439	34.1005	-27.236	-138.25	35.3105	16.9124	-157.566	2.14337	-18.7512	-129.667	17.9358	-12.2523	-140.026	19.3064	19.6822	-153.624	-17.695	-8.77379	-133.6	-1.54792	-18.8631	-119.804	14.3707	3.89372	-191.969	-9.48807	26.2598	-191.067	-10.3641	57.7616	-202.969	20.6448	44.3668	
255	2.125	-177.837	51.0684	47.8464	-166.917	67.4036	23.5579	-156.143	73.3838	-4.42361	-143.677	59.668	-26.9405	-178.4	41.5497	-23.6685	-144.341	49.3443	-28.8511	-134.48	48.8039	1.13269	-169.552	23.5069	-28.3786	-139.277	29.0336	-30.0529	-136.689	31.0276	10.8898	-162.19	4.73748	-19.7632	-130.886	12.2023	-14.3239	-139.842	20.3571	17.952	-157.357	-14.7815	-12.0472	-132.614	-6.41596	-16.9765	-121.58	9.5105	9.36091	-193.254	-5.30205	27.0763	-192.994	-6.47626	58.6974	-201.225	22.3497	45.753	
256	2.13333	-175.504	56.8614	51.1246	-163.872	72.4942	23.8171	-155.399	75.7912	-3.68907	-144.173	77.2496	-29.0149	-179.645	45.2789	-22.9406	-145.768	54.093	-31.9675	-134.833	50.7588	-1.23787	-171.235	19.49	-28.0245	-139.85	29.4984	-33.7255	-134.663	33.2917	5.80632	-162.205	6.84233	-23.1908	-133.438	12.1444	-21.1803	-135.426	20.0224	11.359	-160.211	-15.3102	-10.8065	-137.531	-2.53321	-21.4227	-122.963	10.4602	1.08775	-192.712	-3.03794	26.877	-193.855	-3.90027	59.0338	-199.989	25.0083	45.7091	
257	2.14167	-175.949	60.7614	51.3003	-169.02	76.6085	23.6553	-161.961	83.2889	0.0726943	-153.375	88.628	-24.1759	-177.629	47.1073	-28.948	-145.844	49.9517	-35.9068	-132.663	51.0528	-8.94169	-171.18	26.1042	-31.3611	-136.207	30.5471	-32.4229	-133.121	36.8722	5.01598	-166.009	5.187	-21.3609	-134.645	11.3737	-27.3833	-128.576	24.3406	2.92075	-160.451	-14.8299	-10.3231	-137.435	-5.277	-24.012	-117.314	8.90662	-7.69991	-191.69	-0.0901024	25.2951	-193.343	-2.54104	59.016	-197.93	28.206	39.3645	
258	2.15	-178.262	60.1305	49.0858	-173.429	75.777	28.3743	-173.249	94.7342	0.204279	-168.745	101.472	-18.8712	-174.571	44.0605	-28.7927	-144.794	48.7983	-39.9525	-127.239	52.1087	-13.2435	-166.587	20.5058	-30.908	-132.893	32.5081	-33.2312	-127.669	32.9806	5.98489	-161.752	4.86321	-24.3408	-131.826	12.9539	-30.5358	-119.81	23.0987	1.74265	-160.461	-15.8627	-11.6218	-135.897	-13.3332	-27.3503	-117.117	1.34324	-20.6533	-191.317	-1.56045	27.7444	-193.539	2.05939	56.6354	-197.069	30.1227	40.1977	
259	2.15833	-181.222	62.1953	45.983	-181.692	79.1102	25.6743	-184.536	93.9582	-0.913162	-182.791	109.338	-15.2393	-172.743	39.9966	-29.6703	-144.213	50.4072	-43.0307	-122.193	53.5579	-17.8768	-163.747	19.5263	-30.901	-132.232	27.2936	-35.9364	-121.183	36.4032	5.52455	-158.694	-0.435556	-23.2563	-132.277	5.57708	-31.7061	-113.092	23.4119	-6.2234	-160.062	-17.677	-4.73096	-137.153	-21.3762	-23.7766	-114.482	-4.12099	-27.8068	-191.542	-3.47831	29.6004	-192.478	2.43121	57.9343	-199.691	34.135	37.8864	
